<?xml version="1.0" standalone="no"?>
<!DOCTYPE svg PUBLIC "-//W3C//DTD SVG 20010904//EN"
 "http://www.w3.org/TR/2001/REC-SVG-20010904/DTD/svg10.dtd">
<svg version="1.0" xmlns="http://www.w3.org/2000/svg"
 width="3264.000000pt" height="1080.000000pt" viewBox="0 0 3264.000000 1080.000000"
 preserveAspectRatio="xMidYMid meet">

<g transform="translate(0.000000,1080.000000) scale(0.100000,-0.100000)"
fill="#000000" stroke="none">
<path d="M2223 7463 l3 -2718 22 -128 c55 -331 135 -575 279 -859 348 -683
1012 -1277 1714 -1531 597 -217 1315 -224 1944 -20 635 206 1194 639 1592
1233 342 511 503 1055 503 1703 0 794 -242 1442 -764 2045 -373 430 -830 746
-1311 908 -751 251 -1670 173 -2355 -201 -261 -142 -460 -294 -697 -532 l-163
-163 -2 1488 -3 1487 -383 3 -382 2 3 -2717z m3293 -8 c509 -67 921 -278 1300
-666 359 -369 557 -744 641 -1219 23 -130 26 -171 26 -400 0 -279 -9 -369 -63
-586 -98 -402 -311 -770 -632 -1096 -292 -294 -624 -489 -997 -582 -371 -94
-766 -96 -1110 -5 -433 114 -844 391 -1156 779 -363 452 -532 966 -512 1557
19 520 168 951 469 1350 90 120 273 312 393 412 295 246 652 403 1041 455 139
19 456 20 600 1z"/>
<path d="M9165 10168 c-3 -7 -4 -317 -3 -688 l3 -675 388 -3 387 -2 -2 687 -3
688 -383 3 c-301 2 -384 0 -387 -10z"/>
<path d="M11027 10173 c-4 -3 -7 -1801 -7 -3995 l0 -3988 393 2 392 3 0 3990
0 3990 -386 3 c-212 1 -388 -1 -392 -5z"/>
<path d="M19997 10173 c-4 -3 -7 -1801 -7 -3995 l0 -3988 390 0 390 0 -2 3993
-3 3992 -381 3 c-209 1 -383 -1 -387 -5z"/>
<path d="M28280 6947 c0 -2785 2 -3239 15 -3349 111 -950 713 -1444 1850
-1518 88 -5 188 -10 222 -10 l63 0 0 324 0 324 -107 6 c-171 11 -270 25 -381
52 -487 120 -759 424 -849 946 -16 95 -17 237 -20 1875 l-4 1773 678 2 678 3
0 365 0 365 -677 3 -678 2 0 1030 0 1030 -395 0 -395 0 0 -3223z"/>
<path d="M15617 8229 c-505 -44 -1008 -233 -1405 -527 -536 -396 -943 -937
-1147 -1525 -160 -457 -208 -1038 -129 -1542 95 -606 365 -1146 811 -1624 611
-653 1394 -975 2303 -948 447 13 813 106 1197 301 298 151 540 333 806 605 71
72 131 131 133 131 2 0 4 -205 4 -455 l0 -455 383 2 382 3 0 1635 c0 1720 0
1730 -45 1976 -101 552 -359 1036 -790 1487 -544 568 -1176 872 -1945 937
-136 11 -427 11 -558 -1z m645 -775 c462 -60 860 -258 1202 -599 466 -465 706
-1035 706 -1680 0 -175 -21 -373 -56 -535 -149 -679 -651 -1316 -1269 -1611
-484 -231 -1063 -259 -1617 -78 -120 39 -369 161 -478 234 -262 176 -514 432
-692 705 -474 724 -491 1755 -40 2484 231 374 577 690 957 877 221 108 423
168 675 203 147 20 459 20 612 0z"/>
<path d="M9165 8088 c-3 -7 -4 -1336 -3 -2953 l3 -2940 388 -3 387 -2 -2 2952
-3 2953 -383 3 c-301 2 -384 0 -387 -10z"/>
<path d="M21883 8083 c2 -10 116 -299 252 -643 234 -592 678 -1716 1180 -2990
125 -316 359 -911 521 -1322 l295 -747 -132 -333 c-72 -183 -269 -679 -436
-1103 -168 -424 -308 -780 -311 -793 l-4 -22 413 0 c228 0 419 4 425 8 5 4 89
196 186 427 328 784 879 2098 1140 2720 143 341 336 800 428 1020 92 220 284
679 427 1020 144 341 424 1009 623 1485 199 476 400 955 446 1065 46 110 84
205 84 212 0 19 -803 19 -818 1 -5 -7 -53 -114 -105 -238 -117 -278 -649
-1532 -1007 -2375 -147 -346 -381 -898 -520 -1225 -347 -818 -344 -812 -354
-814 -4 0 -50 103 -101 229 -51 127 -297 741 -548 1365 -1031 2566 -1226 3050
-1232 3060 -4 7 -146 10 -432 10 -400 0 -425 -1 -420 -17z"/>
</g>
</svg>
